<svg xmlns="http://www.w3.org/2000/svg" viewBox="0 0 910 118" role="img" aria-label="Habit tracker ML pipeline">
  <defs>
    <marker id="a" viewBox="0 0 10 10" refX="9" refY="5" markerWidth="7" markerHeight="7" orient="auto-start-reverse">
      <path d="M0 0 L10 5 L0 10 z" fill="#c4c9d0"/>
    </marker>
    <style>
      .b{fill:#fff;stroke:#e7e9ec;stroke-width:1.5}
      .ac{fill:#eff4ff;stroke:#2563eb;stroke-width:1.5}
      .t{font:600 14px -apple-system,Segoe UI,Roboto,sans-serif;fill:#24292f}
      .s{font:12px -apple-system,Segoe UI,Roboto,sans-serif;fill:#6b7280}
      text{text-anchor:middle}
      line{stroke:#c4c9d0;stroke-width:1.5}
    </style>
  </defs>
  <rect class="b"  x="20"  y="40" width="150" height="58" rx="10"/>
  <text class="t"  x="95"  y="65">Watch sensors</text>
  <text class="s"  x="95"  y="83">accel · gyro</text>
  <rect class="b"  x="200" y="40" width="150" height="58" rx="10"/>
  <text class="t"  x="275" y="65">Sliding windows</text>
  <text class="s"  x="275" y="83">per batch</text>
  <rect class="b"  x="380" y="40" width="150" height="58" rx="10"/>
  <text class="t"  x="455" y="65">Features</text>
  <text class="s"  x="455" y="83">mean · std · max · energy</text>
  <rect class="b"  x="560" y="40" width="150" height="58" rx="10"/>
  <text class="t"  x="635" y="65">Random Forest</text>
  <text class="s"  x="635" y="83">class balanced</text>
  <rect class="ac" x="740" y="40" width="150" height="58" rx="10"/>
  <text class="t"  x="815" y="65" fill="#2563eb">Predict</text>
  <text class="s"  x="815" y="83">smooth · YES / NO</text>
  <line x1="172" y1="69" x2="198" y2="69" marker-end="url(#a)"/>
  <line x1="352" y1="69" x2="378" y2="69" marker-end="url(#a)"/>
  <line x1="532" y1="69" x2="558" y2="69" marker-end="url(#a)"/>
  <line x1="712" y1="69" x2="738" y2="69" marker-end="url(#a)"/>
</svg>
